<svg width="60" height="60" viewBox="0 0 60 60" fill="none" xmlns="http://www.w3.org/2000/svg">
<path d="M46.9785 49.8012C50.4167 47.2267 49.9005 46.6157 50.5337 46.1122C51.6798 45.1959 52.5505 44.0747 53.287 42.8193L55.1559 39.6405C56.2744 37.7373 56.8423 35.485 56.9283 33.2897C56.9524 32.6586 57.2036 32.3129 57.4101 31.7792C57.8472 30.6513 57.6029 29.3892 57.5891 28.2412C57.5822 27.7008 57.799 27.1805 57.6855 26.5864L56.8147 22.0079C56.6151 20.9539 56.0782 19.9737 55.6893 18.9734C55.3761 18.1645 54.6844 17.5737 54.674 16.5969C55.2075 16.8453 55.4277 17.3857 55.5517 17.9329C55.7375 18.7553 56.1471 19.3863 56.5188 20.0946C57.0247 21.0579 57.1589 22.0952 57.5719 23.0585L57.2794 20.5074C57.713 20.6249 57.5272 21.1217 57.7027 21.3668C60.5283 25.3679 60.6728 35.3977 58.5459 39.8554C57.7646 41.4934 57.4618 43.0677 56.3776 44.4809C55.6652 45.4107 55.1593 46.2834 54.5157 47.2401C52.8052 49.7744 50.4821 51.7649 48.0833 53.648C47.2332 54.316 46.4278 55.0175 45.4366 55.5009C38.3709 58.9583 34.1756 60.3949 26.0017 59.3711C26.4766 59.9418 27.251 59.4752 27.8946 59.9116C27.3714 60.3177 22.6357 59.21 21.9577 58.9079C22.6529 58.6562 23.2002 59.304 23.8196 58.8945C22.4223 58.297 20.7325 58.5622 19.4075 57.7129C18.7639 57.3001 17.9585 57.488 17.3528 57.1692C13.2469 55.0142 7.32383 50.7646 5.05922 46.7735L6.40835 47.9752C5.85769 47.032 5.22442 46.1458 4.56018 45.2664C4.3055 45.5987 4.61525 45.7598 4.49479 46.0283C3.76861 45.1623 3.11813 44.2124 2.85657 43.1281L3.77893 44.2728C3.34528 43.0375 2.69481 41.8962 2.10973 40.6073C-0.123899 35.6595 0.636705 33.4408 0.516247 28.5769C-0.0757163 28.7985 0.409556 29.2785 0 29.5738C0.23059 26.5898 0.998078 23.6661 1.74492 20.6518C2.09252 19.2453 2.74299 18.0705 3.33496 16.7815C4.59804 14.0358 6.73531 11.4209 8.76244 9.1417C10.7586 6.89608 13.037 4.98277 15.9279 3.85157C16.84 3.49576 17.6729 3.0896 18.5402 2.63645C20.1405 1.80063 21.8854 1.39112 23.6372 0.800342C26.012 -0.00190631 28.545 0.0887242 31.0402 0.0484439C33.0536 0.0148771 35.036 -0.152957 37.1526 0.424393C36.5847 1.02188 35.8964 0.222992 35.1943 0.656004C35.9274 1.19979 36.9151 0.763418 37.7377 1.11923C38.5568 1.47168 39.3793 1.44818 40.2225 1.66637C41.1518 1.90469 41.9124 2.55589 42.9449 2.58945C43.8948 2.61967 44.6657 3.52933 45.4091 3.71394C45.7395 3.79451 46.3452 3.45212 46.8925 3.73744C47.8768 4.25101 48.868 4.54305 49.9934 4.47591C50.5578 4.44235 51.0431 4.99956 51.666 4.66724C51.1601 4.31479 51.5043 4.35843 51.8829 4.48934C52.523 4.73438 52.5781 5.81187 53.0909 6.18111C54.1784 6.95986 55.0285 7.64127 55.7513 8.78925C56.0989 9.33975 57.4239 11.7096 57.7199 12.0217C58.4426 12.7938 59.1585 13.5121 58.835 14.6836C58.7937 14.8346 58.8522 15.1972 58.7902 15.3012C58.7076 15.4355 58.3187 15.4993 58.1811 15.3415C57.1279 14.1465 56.3949 16.09 52.2993 12.1594C52.079 11.9479 51.8312 11.8069 51.6523 11.9177C51.3597 12.0956 51.5972 12.438 51.5628 12.6864C51.2702 14.9823 51.8691 17.087 53.3008 18.8929C52.9291 19.4434 52.3647 19.5911 51.8347 19.6146C51.1154 19.6448 50.6989 19.2621 50.2033 18.7318C49.2878 17.7516 49.0469 16.4324 48.7682 15.1435C48.5961 14.3446 48.0282 13.6497 47.6427 12.9448C47.5051 12.6931 46.9854 12.5991 46.9166 12.2634C46.6688 11.0248 45.4539 10.7294 44.6726 10.0212C43.3476 8.81611 42.1499 7.80239 40.3912 7.22839C40.0642 7.12098 39.8749 6.69132 39.3484 6.65104C36.6019 6.43957 36.8807 4.5934 28.2972 5.30501C24.6078 5.61047 21.1007 6.85245 18.017 8.82618C16.2996 9.92717 14.4618 10.8301 13.037 12.3171C10.8274 14.6265 9.24083 17.2011 7.76436 19.9469C7.03473 21.3063 6.26036 23.5016 5.90587 25.0625C4.96286 29.218 5.05922 33.2729 5.98158 37.4419C6.52537 39.899 7.82631 41.9332 9.15134 44.0781C9.55402 44.7293 9.55746 45.1422 10.5624 45.3536C11.471 45.5416 11.6775 46.9111 12.1697 47.5086C13.8664 49.5696 16.2928 50.7713 18.4507 52.2818L19.8927 53.2888C22.1229 54.8497 31.054 55.6083 33.3599 55.1719L35.6039 54.7456C37.2352 54.4368 42.377 53.0841 43.1927 52.2416C44.1977 51.201 45.7842 50.7042 46.9785 49.808V49.8012ZM41.9365 7.11091C40.7078 5.94278 39.2451 5.24459 37.6275 4.96263L41.9365 7.11091ZM6.00912 39.6708C6.36361 40.2078 5.97814 41.2518 6.98999 41.3088C5.26916 37.6668 4.62213 32.7929 4.90091 29.0401C5.1728 26.7576 5.77853 24.6731 6.22938 22.3973C4.94909 24.616 4.32271 31.175 4.66688 33.5582L5.1315 36.7572C5.28637 37.8212 5.34144 38.657 6.01256 39.6708H6.00912ZM41.933 53.2888C40.873 53.3224 40.0608 54.034 39.1247 54.373C40.312 54.4838 40.9866 53.7084 41.933 53.2888ZM21.7375 54.4704C24.4598 55.5445 27.4609 55.7426 30.3416 55.5647C26.5523 55.3331 25.4235 55.229 21.7375 54.4704ZM34.6127 55.5177C34.0345 55.2659 33.4253 55.5009 32.7645 55.6117C31.9626 55.7459 31.2158 55.4405 30.5102 55.7526C31.4119 55.8198 34.0689 56.0245 34.6161 55.5177H34.6127Z" fill="white" fill-opacity="0.5"/>
<path d="M30.5481 38.5967C30.2865 37.7843 32.8608 38.3953 33.9209 38.1267L30.9645 30.2922L25.9638 30.3191C24.9967 35.7838 27.6158 41.7452 33.6077 43.0443C33.9587 43.6921 34.1583 44.3198 34.21 45.112L29.5603 45.0851C29.3951 44.8502 29.5224 44.1654 29.784 44.1486L33.3083 43.9338C33.5526 43.7492 33.1672 43.1953 32.761 43.1215C26.3905 41.9701 22.3294 36.8243 23.5443 30.3426C22.3019 30.2049 21.1076 30.262 19.8101 30.3023L16.7746 38.1167C17.7967 38.3617 20.1646 37.9052 20.23 38.4456C20.2472 38.5765 20.1715 38.7947 19.9237 38.7947H13.4018C13.209 38.7947 13.0542 38.7041 13.0094 38.6168C12.5964 37.7944 15.3256 38.4053 16.0243 38.0864L25.1481 14.8347L24.2843 12.6159C25.0793 12.3037 25.7917 12.0319 26.6108 11.9077L30.7305 22.4812C35.535 20.7827 41.8848 21.7797 45.1682 25.6634C47.8423 28.8287 48.4653 33.3871 46.6584 37.1197C44.0393 42.5307 37.9855 43.1013 37.7824 43.3195C37.6723 43.437 37.5243 43.9573 37.7101 43.9674L41.1036 44.1151C41.4237 44.1285 41.6095 44.7495 41.4753 45.1086L36.8153 45.1422C36.8153 44.3836 37.07 43.8096 37.3178 43.0778C44.38 41.5942 46.7238 33.659 44.3422 27.6673C43.1032 24.5456 40.2397 22.3436 36.8738 21.9844C34.9706 21.7797 32.5098 21.9341 30.9025 23.0418L36.6122 38.1435C37.3866 38.3818 39.4757 37.8649 39.5342 38.4389C39.5617 38.7276 39.3828 38.7981 39.0868 38.7981H30.9301C30.7373 38.7981 30.5756 38.7007 30.5412 38.6L30.5481 38.5967ZM23.7646 29.5336C24.4495 26.8113 26.1565 24.9215 28.4142 23.4849L25.4923 15.7544L20.0717 29.5974C21.3761 29.6444 22.5118 29.735 23.7646 29.5336ZM30.6857 29.584L28.7653 24.4885C27.3198 25.9453 26.4697 27.6438 26.0911 29.5974C27.6743 29.6477 29.1026 29.7249 30.6892 29.584H30.6857Z" fill="white" fill-opacity="0.5"/>
</svg>
