<svg width="38" height="38" viewBox="0 0 38 38" fill="none" xmlns="http://www.w3.org/2000/svg">
<circle cx="19" cy="19" r="19" transform="rotate(180 19 19)" fill="#C5C5C5"/>
<path d="M24 13.7375L24 24.2625C24.0006 24.678 23.8835 25.0852 23.6623 25.4369C23.4411 25.7887 23.1248 26.0706 22.75 26.25C22.3053 26.46 21.8106 26.5409 21.3222 26.4835C20.8337 26.426 20.3713 26.2325 19.9875 25.925L13.6125 20.6625C13.3742 20.456 13.1831 20.2007 13.0521 19.9138C12.9211 19.627 12.8534 19.3153 12.8534 19C12.8534 18.6847 12.9211 18.373 13.0521 18.0862C13.1831 17.7994 13.3742 17.544 13.6125 17.3375L19.9875 12.075C20.3713 11.7675 20.8337 11.574 21.3222 11.5165C21.8106 11.4591 22.3053 11.54 22.75 11.75C23.1248 11.9294 23.4411 12.2113 23.6623 12.5631C23.8835 12.9148 24.0006 13.322 24 13.7375Z" fill="#1D1D1D"/>
</svg>
