<svg width="38" height="38" viewBox="0 0 38 38" fill="none" xmlns="http://www.w3.org/2000/svg">
<circle cx="19" cy="19" r="19" fill="#C5C5C5"/>
<path d="M14 24.2625L14 13.7375C13.9994 13.322 14.1165 12.9148 14.3377 12.5631C14.5589 12.2113 14.8752 11.9294 15.25 11.75C15.6947 11.54 16.1894 11.4591 16.6778 11.5165C17.1662 11.574 17.6287 11.7675 18.0125 12.075L24.3875 17.3375C24.6258 17.544 24.8169 17.7993 24.9478 18.0862C25.0788 18.373 25.1466 18.6847 25.1466 19C25.1466 19.3153 25.0788 19.627 24.9478 19.9138C24.8169 20.2006 24.6258 20.456 24.3875 20.6625L18.0125 25.925C17.6287 26.2325 17.1662 26.426 16.6778 26.4835C16.1894 26.5409 15.6946 26.46 15.25 26.25C14.8752 26.0706 14.5589 25.7887 14.3377 25.4369C14.1165 25.0852 13.9994 24.678 14 24.2625Z" fill="#1D1D1D"/>
</svg>
