<svg width="300" height="50" viewBox="0 0 300 50" fill="none" xmlns="http://www.w3.org/2000/svg">
<rect width="300" height="50" rx="25" fill="url(#paint0_linear_5_117)"/>
<path d="M60.3473 31V19.3636H65.0064C65.8625 19.3636 66.5765 19.4905 67.1484 19.7443C67.7204 19.9981 68.1503 20.3504 68.4382 20.8011C68.7261 21.2481 68.87 21.7633 68.87 22.3466C68.87 22.8011 68.7791 23.2008 68.5973 23.5455C68.4155 23.8864 68.1655 24.1667 67.8473 24.3864C67.5329 24.6023 67.1731 24.7557 66.7678 24.8466V24.9602C67.2109 24.9792 67.6257 25.1042 68.0121 25.3352C68.4022 25.5663 68.7185 25.8902 68.9609 26.3068C69.2034 26.7197 69.3246 27.2121 69.3246 27.7841C69.3246 28.4015 69.1712 28.9527 68.8643 29.4375C68.5613 29.9186 68.1125 30.2992 67.5178 30.5795C66.9231 30.8598 66.1901 31 65.3189 31H60.3473ZM62.8075 28.9886H64.8132C65.4988 28.9886 65.9988 28.858 66.3132 28.5966C66.6276 28.3314 66.7848 27.9792 66.7848 27.5398C66.7848 27.2178 66.7071 26.9337 66.5518 26.6875C66.3965 26.4413 66.175 26.2481 65.8871 26.108C65.603 25.9678 65.264 25.8977 64.87 25.8977H62.8075V28.9886ZM62.8075 24.233H64.6314C64.9685 24.233 65.2678 24.1742 65.5291 24.0568C65.7943 23.9356 66.0026 23.7652 66.1541 23.5455C66.3094 23.3258 66.3871 23.0625 66.3871 22.7557C66.3871 22.3352 66.2375 21.9962 65.9382 21.7386C65.6428 21.4811 65.2223 21.3523 64.6768 21.3523H62.8075V24.233ZM81.6186 25.1818C81.6186 26.4508 81.3781 27.5303 80.897 28.4205C80.4197 29.3106 79.7682 29.9905 78.9425 30.4602C78.1205 30.9261 77.1963 31.1591 76.1697 31.1591C75.1357 31.1591 74.2076 30.9242 73.3857 30.4545C72.5637 29.9848 71.9141 29.3049 71.4368 28.4148C70.9595 27.5246 70.7209 26.447 70.7209 25.1818C70.7209 23.9129 70.9595 22.8333 71.4368 21.9432C71.9141 21.053 72.5637 20.375 73.3857 19.9091C74.2076 19.4394 75.1357 19.2045 76.1697 19.2045C77.1963 19.2045 78.1205 19.4394 78.9425 19.9091C79.7682 20.375 80.4197 21.053 80.897 21.9432C81.3781 22.8333 81.6186 23.9129 81.6186 25.1818ZM79.1243 25.1818C79.1243 24.3598 79.0012 23.6667 78.755 23.1023C78.5125 22.5379 78.1697 22.1098 77.7266 21.8182C77.2834 21.5265 76.7644 21.3807 76.1697 21.3807C75.575 21.3807 75.0561 21.5265 74.6129 21.8182C74.1697 22.1098 73.825 22.5379 73.5788 23.1023C73.3364 23.6667 73.2152 24.3598 73.2152 25.1818C73.2152 26.0038 73.3364 26.697 73.5788 27.2614C73.825 27.8258 74.1697 28.2538 74.6129 28.5455C75.0561 28.8371 75.575 28.983 76.1697 28.983C76.7644 28.983 77.2834 28.8371 77.7266 28.5455C78.1697 28.2538 78.5125 27.8258 78.755 27.2614C79.0012 26.697 79.1243 26.0038 79.1243 25.1818ZM94.1342 25.1818C94.1342 26.4508 93.8937 27.5303 93.4126 28.4205C92.9354 29.3106 92.2839 29.9905 91.4581 30.4602C90.6361 30.9261 89.7119 31.1591 88.6854 31.1591C87.6513 31.1591 86.7232 30.9242 85.9013 30.4545C85.0793 29.9848 84.4297 29.3049 83.9524 28.4148C83.4751 27.5246 83.2365 26.447 83.2365 25.1818C83.2365 23.9129 83.4751 22.8333 83.9524 21.9432C84.4297 21.053 85.0793 20.375 85.9013 19.9091C86.7232 19.4394 87.6513 19.2045 88.6854 19.2045C89.7119 19.2045 90.6361 19.4394 91.4581 19.9091C92.2839 20.375 92.9354 21.053 93.4126 21.9432C93.8937 22.8333 94.1342 23.9129 94.1342 25.1818ZM91.6399 25.1818C91.6399 24.3598 91.5168 23.6667 91.2706 23.1023C91.0282 22.5379 90.6854 22.1098 90.2422 21.8182C89.799 21.5265 89.2801 21.3807 88.6854 21.3807C88.0907 21.3807 87.5717 21.5265 87.1286 21.8182C86.6854 22.1098 86.3407 22.5379 86.0945 23.1023C85.852 23.6667 85.7308 24.3598 85.7308 25.1818C85.7308 26.0038 85.852 26.697 86.0945 27.2614C86.3407 27.8258 86.6854 28.2538 87.1286 28.5455C87.5717 28.8371 88.0907 28.983 88.6854 28.983C89.2801 28.983 89.799 28.8371 90.2422 28.5455C90.6854 28.2538 91.0282 27.8258 91.2706 27.2614C91.5168 26.697 91.6399 26.0038 91.6399 25.1818ZM95.9567 31V19.3636H98.4169V24.4943H98.5703L102.758 19.3636H105.707L101.388 24.5739L105.758 31H102.815L99.6271 26.2159L98.4169 27.6932V31H95.9567ZM113.31 31L109.981 19.3636H112.668L114.594 27.4489H114.691L116.816 19.3636H119.117L121.237 27.4659H121.339L123.265 19.3636H125.952L122.623 31H120.225L118.009 23.392H117.918L115.708 31H113.31ZM129.729 19.3636V31H127.269V19.3636H129.729ZM131.31 21.392V19.3636H140.867V21.392H137.305V31H134.873V21.392H131.31ZM142.441 31V19.3636H144.901V24.1648H149.896V19.3636H152.35V31H149.896V26.1932H144.901V31H142.441ZM168.349 23.4375H165.86C165.815 23.1155 165.722 22.8295 165.582 22.5795C165.442 22.3258 165.262 22.1098 165.042 21.9318C164.822 21.7538 164.568 21.6174 164.281 21.5227C163.996 21.428 163.688 21.3807 163.354 21.3807C162.752 21.3807 162.228 21.5303 161.781 21.8295C161.334 22.125 160.987 22.5568 160.741 23.125C160.495 23.6894 160.371 24.375 160.371 25.1818C160.371 26.0114 160.495 26.7083 160.741 27.2727C160.991 27.8371 161.339 28.2633 161.786 28.5511C162.233 28.839 162.75 28.983 163.337 28.983C163.667 28.983 163.972 28.9394 164.252 28.8523C164.536 28.7652 164.788 28.6383 165.008 28.4716C165.228 28.3011 165.409 28.0947 165.553 27.8523C165.701 27.6098 165.803 27.3333 165.86 27.0227L168.349 27.0341C168.284 27.5682 168.123 28.0833 167.866 28.5795C167.612 29.072 167.269 29.5133 166.837 29.9034C166.409 30.2898 165.898 30.5966 165.303 30.8239C164.712 31.0473 164.044 31.1591 163.298 31.1591C162.26 31.1591 161.332 30.9242 160.513 30.4545C159.699 29.9848 159.055 29.3049 158.582 28.4148C158.112 27.5246 157.877 26.447 157.877 25.1818C157.877 23.9129 158.116 22.8333 158.593 21.9432C159.07 21.053 159.718 20.375 160.536 19.9091C161.354 19.4394 162.275 19.2045 163.298 19.2045C163.972 19.2045 164.597 19.2992 165.173 19.4886C165.752 19.678 166.265 19.9545 166.712 20.3182C167.159 20.678 167.523 21.1193 167.803 21.642C168.087 22.1648 168.269 22.7633 168.349 23.4375ZM170.113 31V19.3636H172.573V24.1648H177.567V19.3636H180.022V31H177.567V26.1932H172.573V31H170.113ZM182.05 31V19.3636H186.641C187.52 19.3636 188.27 19.5208 188.891 19.8352C189.516 20.1458 189.992 20.5871 190.317 21.1591C190.647 21.7273 190.812 22.3958 190.812 23.1648C190.812 23.9375 190.645 24.6023 190.312 25.1591C189.978 25.7121 189.496 26.1364 188.863 26.4318C188.234 26.7273 187.473 26.875 186.579 26.875H183.505V24.8977H186.181C186.651 24.8977 187.041 24.8333 187.352 24.7045C187.662 24.5758 187.893 24.3826 188.045 24.125C188.2 23.8674 188.278 23.5473 188.278 23.1648C188.278 22.7784 188.2 22.4527 188.045 22.1875C187.893 21.9223 187.66 21.7216 187.346 21.5852C187.035 21.4451 186.643 21.375 186.17 21.375H184.511V31H182.05ZM188.335 25.7045L191.227 31H188.511L185.681 25.7045H188.335ZM195.011 19.3636V31H192.55V19.3636H195.011ZM203.347 22.7102C203.302 22.2519 203.107 21.8958 202.762 21.642C202.417 21.3883 201.95 21.2614 201.359 21.2614C200.957 21.2614 200.618 21.3182 200.342 21.4318C200.065 21.5417 199.853 21.6951 199.705 21.892C199.561 22.089 199.489 22.3125 199.489 22.5625C199.482 22.7708 199.525 22.9527 199.62 23.108C199.719 23.2633 199.853 23.3977 200.023 23.5114C200.194 23.6212 200.391 23.7178 200.614 23.8011C200.838 23.8807 201.076 23.9489 201.33 24.0057L202.376 24.2557C202.883 24.3693 203.349 24.5208 203.773 24.7102C204.198 24.8996 204.565 25.1326 204.876 25.4091C205.186 25.6856 205.427 26.0114 205.597 26.3864C205.772 26.7614 205.861 27.1913 205.864 27.6761C205.861 28.3883 205.679 29.0057 205.319 29.5284C204.963 30.0473 204.448 30.4508 203.773 30.7386C203.103 31.0227 202.294 31.1648 201.347 31.1648C200.408 31.1648 199.59 31.0208 198.893 30.733C198.2 30.4451 197.658 30.0189 197.268 29.4545C196.881 28.8864 196.679 28.1837 196.66 27.3466H199.04C199.067 27.7367 199.179 28.0625 199.376 28.3239C199.576 28.5814 199.844 28.7765 200.177 28.9091C200.514 29.0379 200.895 29.1023 201.319 29.1023C201.736 29.1023 202.097 29.0417 202.404 28.9205C202.715 28.7992 202.955 28.6307 203.126 28.4148C203.296 28.1989 203.381 27.9508 203.381 27.6705C203.381 27.4091 203.304 27.1894 203.148 27.0114C202.997 26.8333 202.773 26.6818 202.478 26.5568C202.186 26.4318 201.828 26.3182 201.404 26.2159L200.137 25.8977C199.156 25.6591 198.381 25.286 197.813 24.7784C197.245 24.2708 196.963 23.5871 196.967 22.7273C196.963 22.0227 197.15 21.4072 197.529 20.8807C197.912 20.3542 198.436 19.9432 199.103 19.6477C199.77 19.3523 200.527 19.2045 201.376 19.2045C202.239 19.2045 202.993 19.3523 203.637 19.6477C204.285 19.9432 204.789 20.3542 205.148 20.8807C205.508 21.4072 205.694 22.017 205.705 22.7102H203.347ZM207.076 21.392V19.3636H216.633V21.392H213.07V31H210.638V21.392H207.076ZM228.369 25.1818C228.369 26.4508 228.128 27.5303 227.647 28.4205C227.17 29.3106 226.518 29.9905 225.692 30.4602C224.871 30.9261 223.946 31.1591 222.92 31.1591C221.886 31.1591 220.958 30.9242 220.136 30.4545C219.314 29.9848 218.664 29.3049 218.187 28.4148C217.71 27.5246 217.471 26.447 217.471 25.1818C217.471 23.9129 217.71 22.8333 218.187 21.9432C218.664 21.053 219.314 20.375 220.136 19.9091C220.958 19.4394 221.886 19.2045 222.92 19.2045C223.946 19.2045 224.871 19.4394 225.692 19.9091C226.518 20.375 227.17 21.053 227.647 21.9432C228.128 22.8333 228.369 23.9129 228.369 25.1818ZM225.874 25.1818C225.874 24.3598 225.751 23.6667 225.505 23.1023C225.263 22.5379 224.92 22.1098 224.477 21.8182C224.033 21.5265 223.514 21.3807 222.92 21.3807C222.325 21.3807 221.806 21.5265 221.363 21.8182C220.92 22.1098 220.575 22.5379 220.329 23.1023C220.086 23.6667 219.965 24.3598 219.965 25.1818C219.965 26.0038 220.086 26.697 220.329 27.2614C220.575 27.8258 220.92 28.2538 221.363 28.5455C221.806 28.8371 222.325 28.983 222.92 28.983C223.514 28.983 224.033 28.8371 224.477 28.5455C224.92 28.2538 225.263 27.8258 225.505 27.2614C225.751 26.697 225.874 26.0038 225.874 25.1818ZM236.504 22.7102C236.458 22.2519 236.263 21.8958 235.918 21.642C235.574 21.3883 235.106 21.2614 234.515 21.2614C234.113 21.2614 233.774 21.3182 233.498 21.4318C233.221 21.5417 233.009 21.6951 232.862 21.892C232.718 22.089 232.646 22.3125 232.646 22.5625C232.638 22.7708 232.682 22.9527 232.776 23.108C232.875 23.2633 233.009 23.3977 233.18 23.5114C233.35 23.6212 233.547 23.7178 233.771 23.8011C233.994 23.8807 234.233 23.9489 234.487 24.0057L235.532 24.2557C236.04 24.3693 236.505 24.5208 236.93 24.7102C237.354 24.8996 237.721 25.1326 238.032 25.4091C238.343 25.6856 238.583 26.0114 238.754 26.3864C238.928 26.7614 239.017 27.1913 239.021 27.6761C239.017 28.3883 238.835 29.0057 238.475 29.5284C238.119 30.0473 237.604 30.4508 236.93 30.7386C236.259 31.0227 235.451 31.1648 234.504 31.1648C233.564 31.1648 232.746 31.0208 232.049 30.733C231.356 30.4451 230.814 30.0189 230.424 29.4545C230.038 28.8864 229.835 28.1837 229.816 27.3466H232.197C232.223 27.7367 232.335 28.0625 232.532 28.3239C232.733 28.5814 233 28.7765 233.333 28.9091C233.67 29.0379 234.051 29.1023 234.475 29.1023C234.892 29.1023 235.254 29.0417 235.56 28.9205C235.871 28.7992 236.112 28.6307 236.282 28.4148C236.452 28.1989 236.538 27.9508 236.538 27.6705C236.538 27.4091 236.46 27.1894 236.305 27.0114C236.153 26.8333 235.93 26.6818 235.634 26.5568C235.343 26.4318 234.985 26.3182 234.56 26.2159L233.293 25.8977C232.312 25.6591 231.538 25.286 230.969 24.7784C230.401 24.2708 230.119 23.5871 230.123 22.7273C230.119 22.0227 230.307 21.4072 230.685 20.8807C231.068 20.3542 231.593 19.9432 232.259 19.6477C232.926 19.3523 233.683 19.2045 234.532 19.2045C235.396 19.2045 236.149 19.3523 236.793 19.6477C237.441 19.9432 237.945 20.3542 238.305 20.8807C238.665 21.4072 238.85 22.017 238.862 22.7102H236.504Z" fill="white"/>
<defs>
<linearGradient id="paint0_linear_5_117" x1="300" y1="25" x2="0" y2="25" gradientUnits="userSpaceOnUse">
<stop stop-color="#1D1D1D"/>
<stop offset="1" stop-color="#737373"/>
</linearGradient>
</defs>
</svg>
