<svg width="197" height="60" viewBox="0 0 197 60" fill="none" xmlns="http://www.w3.org/2000/svg">
<g clip-path="url(#clip0_3_32)">
<path d="M45.5933 49.8045C48.9301 47.2297 48.4291 46.6187 49.0437 46.1152C50.1559 45.1987 51.001 44.0775 51.7158 42.8219L53.5295 39.6428C54.615 37.7394 55.1662 35.4869 55.2497 33.2914C55.2731 32.6602 55.5169 32.3145 55.7173 31.7807C56.1415 30.6527 55.9044 29.3905 55.891 28.2424C55.8843 27.7019 56.0947 27.1816 55.9845 26.5874L55.1395 22.0084C54.9457 20.9543 54.4247 19.9741 54.0472 18.9737C53.7433 18.1646 53.0719 17.5738 53.0619 16.5969C53.5796 16.8453 53.7934 17.3858 53.9136 17.933C54.094 18.7555 54.4915 19.3866 54.8522 20.0949C55.3432 21.0584 55.4735 22.0957 55.8743 23.0592L55.5904 20.5078C56.0112 20.6253 55.8309 21.1222 56.0012 21.3672C58.7435 25.3688 58.8838 35.3996 56.8196 39.8577C56.0613 41.4959 55.7674 43.0704 54.7153 44.4837C54.0238 45.4136 53.5328 46.2864 52.9082 47.2431C51.2482 49.7777 48.9936 51.7684 46.6655 53.6517C45.8404 54.3197 45.0588 55.0213 44.0969 55.5048C37.2395 58.9625 33.1678 60.3993 25.235 59.3754C25.6959 59.9461 26.4474 59.4795 27.072 59.9159C26.5643 60.3221 21.9683 59.2143 21.3103 58.9121C21.985 58.6604 22.5161 59.3083 23.1173 58.8987C21.7612 58.3012 20.1212 58.5664 18.8352 57.717C18.2106 57.3041 17.429 57.4921 16.8411 57.1732C12.8563 55.018 7.10787 50.768 4.91004 46.7765L6.21939 47.9783C5.68496 47.035 5.07037 46.1488 4.42572 45.2692C4.17855 45.6016 4.47916 45.7627 4.36226 46.0312C3.65748 45.1651 3.02619 44.2151 2.77234 43.1308L3.6675 44.2755C3.24664 43.0401 2.61535 41.8988 2.04752 40.6097C-0.120246 35.6614 0.617931 33.4424 0.501025 28.5781C-0.0734837 28.7997 0.39748 29.2797 0 29.5751C0.223791 26.5908 0.968648 23.6668 1.69346 20.6522C2.03082 19.2456 2.66211 18.0706 3.23662 16.7815C4.46246 14.0355 6.5367 11.4204 8.50406 9.14097C10.4414 6.89512 12.6525 4.98162 15.4583 3.85031C16.3434 3.49446 17.1518 3.08826 17.9935 2.63507C19.5466 1.79917 21.2401 1.38961 22.9403 0.798777C25.245 -0.00355063 27.7033 0.0870888 30.125 0.0468046C32.079 0.0132344 34.0029 -0.154617 36.0571 0.422791C35.506 1.02034 34.8379 0.22137 34.1565 0.654425C34.868 1.19826 35.8266 0.76185 36.6249 1.11769C37.4199 1.47018 38.2182 1.44668 39.0365 1.66489C39.9384 1.90324 40.6765 2.5545 41.6786 2.58807C42.6005 2.61828 43.3487 3.52803 44.0701 3.71267C44.3908 3.79324 44.9787 3.45082 45.5098 3.73617C46.465 4.24979 47.427 4.54185 48.5192 4.47471C49.067 4.44114 49.538 4.99841 50.1426 4.66606C49.6516 4.31358 49.9856 4.35722 50.353 4.48814C50.9743 4.7332 51.0277 5.81081 51.5254 6.18008C52.5809 6.95891 53.4059 7.64038 54.1073 8.78848C54.4447 9.33903 55.7307 11.7091 56.0179 12.0213C56.7194 12.7934 57.4141 13.5118 57.1001 14.6834C57.06 14.8345 57.1168 15.197 57.0567 15.3011C56.9765 15.4354 56.5991 15.4992 56.4655 15.3414C55.4434 14.1463 54.732 16.09 50.7572 12.1589C50.5434 11.9474 50.3029 11.8064 50.1292 11.9172C49.8453 12.0951 50.0758 12.4376 50.0424 12.686C49.7584 14.9822 50.3396 17.087 51.7291 18.8931C51.3684 19.4437 50.8206 19.5914 50.3062 19.6149C49.6081 19.6451 49.204 19.2624 48.723 18.732C47.8345 17.7517 47.6007 16.4324 47.3301 15.1433C47.1631 14.3443 46.612 13.6494 46.2379 12.9445C46.1043 12.6927 45.5999 12.5987 45.5331 12.263C45.2926 11.0243 44.1136 10.7288 43.3554 10.0205C42.0694 8.81534 40.907 7.80152 39.2002 7.22747C38.8829 7.12004 38.6992 6.69035 38.1881 6.65006C35.5227 6.43857 35.7932 4.59221 27.4628 5.3039C23.8822 5.60939 20.4786 6.85148 17.4858 8.82541C15.819 9.92651 14.0354 10.8295 12.6525 12.3167C10.5082 14.6263 8.96834 17.2012 7.53541 19.9472C6.8273 21.3068 6.07576 23.5023 5.73172 25.0633C4.81652 29.2193 4.91004 33.2746 5.80521 37.444C6.33295 39.9013 7.59554 41.9357 8.8815 44.0808C9.2723 44.7321 9.27564 45.145 10.251 45.3565C11.1328 45.5445 11.3332 46.9141 11.8108 47.5117C13.4575 49.5729 15.8123 50.7747 17.9066 52.2854L19.3062 53.2925C21.4706 54.8535 30.1383 55.6122 32.3762 55.1758L34.554 54.7494C36.1372 54.4406 41.1275 53.0877 41.9191 52.2451C42.8944 51.2044 44.4342 50.7076 45.5933 49.8113V49.8045ZM40.6999 7.10997C39.5075 5.94173 38.0879 5.24347 36.518 4.96148L40.6999 7.10997ZM5.83193 39.6731C6.17597 40.2102 5.80187 41.2542 6.78388 41.3113C5.11379 37.6689 4.48584 32.7945 4.7564 29.0414C5.02027 26.7586 5.60814 24.6739 6.0457 22.3978C4.80316 24.6168 4.19525 31.1764 4.52926 33.5599L4.98019 36.7592C5.13049 37.8233 5.18394 38.6592 5.83527 39.6731H5.83193ZM40.6966 53.2925C39.6678 53.3261 38.8795 54.0377 37.971 54.3768C39.1234 54.4876 39.778 53.7121 40.6966 53.2925ZM21.0965 54.4742C23.7386 55.5484 26.6512 55.7465 29.4469 55.5685C25.7694 55.3369 24.6738 55.2328 21.0965 54.4742ZM33.592 55.5215C33.0309 55.2698 32.4397 55.5048 31.7984 55.6155C31.0201 55.7498 30.2953 55.4443 29.6106 55.7565C30.4857 55.8237 33.0643 56.0285 33.5954 55.5215H33.592Z" fill="#363636"/>
<path d="M29.6473 38.599C29.3935 37.7866 31.8919 38.3976 32.9207 38.129L30.0515 30.2937L25.1982 30.3206C24.2596 35.7858 26.8015 41.7479 32.6167 43.0471C32.9574 43.695 33.1511 44.3227 33.2012 45.115L28.6887 45.0881C28.5284 44.8531 28.6519 44.1683 28.9058 44.1515L32.3261 43.9367C32.5633 43.752 32.1892 43.1981 31.795 43.1243C25.6124 41.9728 21.671 36.8265 22.8501 30.3441C21.6443 30.2065 20.4852 30.2635 19.226 30.3038L16.28 38.1189C17.272 38.364 19.57 37.9075 19.6335 38.4479C19.6502 38.5789 19.5767 38.7971 19.3362 38.7971H13.0066C12.8196 38.7971 12.6693 38.7064 12.6258 38.6191C12.225 37.7967 14.8738 38.4077 15.5518 38.0887L24.4066 14.8347L23.5682 12.6157C24.3398 12.3035 25.0312 12.0316 25.8262 11.9073L29.8243 22.482C34.4872 20.7833 40.6498 21.7803 43.8363 25.6644C46.4316 28.8301 47.0362 33.3889 45.2826 37.1219C42.7408 42.5334 36.8654 43.1041 36.6683 43.3223C36.5615 43.4398 36.4178 43.9602 36.5982 43.9702L39.8916 44.1179C40.2022 44.1314 40.3826 44.7524 40.2523 45.1116L35.7298 45.1452C35.7298 44.3865 35.9769 43.8125 36.2174 43.0806C43.0714 41.5968 45.3461 33.6608 43.0347 27.6685C41.8322 24.5465 39.0532 22.3443 35.7865 21.9851C33.9394 21.7803 31.5512 21.9348 29.9913 23.0426L35.5327 38.1458C36.2842 38.3842 38.3117 37.8672 38.3685 38.4412C38.3952 38.7299 38.2215 38.8004 37.9343 38.8004H30.0181C29.831 38.8004 29.674 38.7031 29.6406 38.6024L29.6473 38.599ZM23.0638 29.5351C23.7285 26.8125 25.3853 24.9225 27.5764 23.4857L24.7406 15.7545L19.4798 29.5988C20.7458 29.6458 21.848 29.7365 23.0638 29.5351ZM29.7809 29.5854L27.9171 24.4895C26.5142 25.9464 25.6892 27.6451 25.3218 29.5988C26.8583 29.6492 28.2444 29.7264 29.7843 29.5854H29.7809Z" fill="#363636"/>
<path d="M157.764 31.6821L157.709 20.7671C155.879 23.478 155.051 27.0173 153.079 29.7084C151.028 26.72 149.554 23.7317 147.712 20.5175L147.602 31.5751C148.264 31.8763 148.84 31.4086 149.207 32.1577C147.874 32.2528 146.675 32.3598 145.385 32.1299C145.669 31.4324 146.281 31.7732 146.939 31.7415L146.912 19.2096C146.565 18.6824 145.169 19.376 145.113 18.5913C145.062 17.8581 147.424 18.2742 148.426 18.2306C149.956 21.1397 151.379 24.0289 153.193 26.8033C154.156 28.2736 157.614 19.0074 158.008 18.298C158.97 18.1672 160.075 17.9572 160.863 18.4209C160.871 19.0193 160.11 19.0074 159.554 19.0352L159.546 31.583C159.964 31.908 160.504 31.5355 160.812 32.2251C159.223 32.3717 157.716 32.5065 156.147 32.2132C156.545 31.3531 157.109 31.9397 157.764 31.6821Z" fill="#363636"/>
<path d="M112.115 31.5632C120.98 32.5937 101.795 32.6293 110.589 31.5513L110.616 25.646C108.412 25.4676 106.31 25.4637 103.991 25.6182C103.956 27.5523 103.802 29.4151 103.991 31.3967C104.043 31.904 105.466 31.3809 105.628 31.7891C105.683 31.9278 105.683 32.3083 105.387 32.3123C103.818 32.3242 102.367 32.3876 100.833 32.2806C100.714 32.2726 100.699 31.69 100.809 31.6821L102.418 31.5553L102.402 19.1699C102.402 18.6071 100.734 19.1303 100.782 18.5794C100.797 18.3575 100.904 18.1514 101.207 18.1791C102.737 18.3059 104.161 18.0681 105.734 18.3495C105.328 19.2135 104.646 18.7023 103.991 18.9757C103.913 20.9376 103.846 22.8083 104.007 24.8414C106.219 25.1625 108.313 25.0911 110.585 24.8335L110.573 19.0035C109.918 18.7459 109.213 19.2571 108.798 18.3178C110.581 18.1831 112.19 18.1712 113.972 18.3178C113.554 19.269 112.829 18.6666 112.111 18.9757V31.5592L112.115 31.5632Z" fill="#363636"/>
<path d="M137.775 32.3519C134.967 32.443 132.747 30.8538 132.065 28.2736C131.524 26.2365 131.505 24.0924 132.116 22.0949C132.853 19.6693 134.92 18.2267 137.408 18.191C139.908 18.1553 142.061 19.4949 142.881 21.9205C143.631 24.1399 143.615 26.5853 142.799 28.7849C142.01 30.9053 140.16 32.2806 137.779 32.3559L137.775 32.3519ZM139.131 31.7614C142.388 30.5486 141.856 24.5363 141.45 21.968C141.103 19.7763 139.585 18.4367 137.534 18.4328C135.499 18.4248 133.985 19.7486 133.591 21.9284C133.153 24.3381 132.786 30.2513 135.499 31.5672C136.741 32.1696 137.826 32.2528 139.135 31.7653L139.131 31.7614Z" fill="#363636"/>
<path d="M93.5099 31.3809C93.5335 31.8406 94.8388 31.4483 95.0557 31.7693C95.107 31.8486 95.1148 32.2528 95.0241 32.2647C94.4523 32.3202 90.3197 32.6016 90.3512 31.9714C90.3788 31.4086 91.2424 31.7851 91.9128 31.5473C92.0863 27.9645 92.0311 24.4689 91.9522 20.8385C91.9404 20.248 92.2204 19.4632 91.8063 19.0114C91.3726 18.5398 90.5602 19.2135 90.2211 18.4129C92.2677 18.2346 94.2197 18.3337 96.2151 18.3456C98.0645 18.3575 99.3816 19.6852 99.6458 21.5162C99.8864 23.1808 99.3777 25.103 97.7806 25.8481C96.4359 26.4743 94.9926 26.1216 93.4902 26.288C93.4468 27.9804 93.431 29.6608 93.5099 31.3769V31.3809ZM96.9091 19.273C95.9509 18.6666 94.6495 18.9202 93.5059 18.9678L93.4941 25.6579C94.7836 25.8798 96.1322 25.9076 97.2246 25.2576C98.7388 24.3579 98.2853 20.1449 96.9091 19.273Z" fill="#363636"/>
<path d="M75.591 28.0596C73.7258 27.7386 71.9118 27.8496 69.9914 27.9605L68.8084 31.5553C69.3683 31.7574 70.6697 31.4522 70.8471 31.7534C70.993 31.9952 70.9023 32.336 70.5592 32.3281C69.0055 32.2885 67.5307 32.4113 66.0716 32.2607C65.9809 32.2528 65.9849 31.8446 66.0362 31.7693C66.2373 31.4641 67.369 31.7296 68.0591 31.5711L72.5073 18.2386C72.6177 17.9096 73.7573 17.9215 73.8717 18.2703L78.1069 31.3452C78.245 31.7693 79.3491 31.6108 79.4556 31.7574C80.122 32.6808 75.7645 32.1735 74.8497 32.1815C75.1573 31.2739 75.8316 31.8287 76.5059 31.5672L75.595 28.0557L75.591 28.0596ZM75.2361 27.366L72.6453 19.3879L70.157 27.4136L75.2361 27.366Z" fill="#363636"/>
<path d="M122.979 28.0121C121.118 27.7267 119.319 27.8734 117.403 27.9566L116.252 31.6306C117.02 31.6742 117.73 31.3333 117.916 32.1894C116.681 32.4708 115.542 32.2964 114.303 32.3123C113.996 32.3123 113.937 31.6821 114.276 31.6266C114.576 31.579 115.376 31.7495 115.534 31.4483L119.603 19.0827C119.741 18.6587 119.737 18.1672 120.061 18.0919C120.483 17.9968 121.177 17.8898 121.331 18.3693L125.361 30.9925C125.66 31.9357 126.65 31.5553 126.855 31.7574C127.735 32.6174 122.865 32.2171 122.273 32.1735C122.593 31.2897 123.251 31.8367 123.906 31.5672L122.975 28.0121H122.979ZM122.64 27.3581L120.037 19.3205L117.62 27.4532L122.64 27.3621V27.3581Z" fill="#363636"/>
<path d="M180.884 31.151C181.728 29.9382 180.951 28.1865 181.298 26.9895C180.561 26.5338 179.011 27.263 179.24 26.1929C180.604 25.9868 182.071 26.0859 183.479 26.1414C183.605 26.7755 182.95 26.7359 182.67 26.8984L182.501 30.8974C182.457 31.912 181.089 32.1617 180.218 32.3598C176.972 33.097 173.786 31.472 172.816 28.2459C172.236 26.3118 172.272 24.3024 172.792 22.3723C173.51 19.7169 175.793 18.1751 178.538 18.2108C179.847 18.2267 181.405 18.3139 182.264 19.4236C182.611 19.8714 182.56 22.3049 182.343 22.3961C180.888 23.0262 182.087 20.351 181.389 19.376C180.912 18.7102 176.282 17.4578 174.752 21.0882C173.344 24.4372 173.79 30.1523 176.511 31.5711C177.579 32.13 180.076 32.3202 180.888 31.151H180.884Z" fill="#363636"/>
<path d="M187.178 28.0002C186.72 29.1812 186.279 30.291 185.943 31.5394C186.551 31.7019 187.048 31.4998 187.481 31.6979C187.58 31.7415 187.533 32.0229 187.489 32.0903C187.264 32.4391 184.528 32.3638 183.763 32.1418C183.968 31.3135 184.729 31.7019 185.305 31.5949L188.215 22.8598L189.67 18.2068C189.946 17.9136 190.979 17.977 191.125 18.4367L195.333 31.5196C195.893 31.7574 196.524 31.4086 196.784 32.1616C195.975 32.2607 192.146 32.5342 192.138 31.9754C192.131 31.369 193.55 31.908 193.613 31.4641L192.754 28.0477C190.9 27.802 189.118 27.8139 187.17 28.0081L187.178 28.0002ZM192.407 27.3225L189.816 19.3285L187.284 27.4255L192.407 27.3225Z" fill="#363636"/>
<path d="M164.164 25.3249L164.156 31.7891L170.686 31.8129L171.073 29.0623C171.096 28.9078 171.187 28.7492 171.266 28.7096C171.329 28.6779 171.404 28.6739 171.641 28.7611L171.27 32.2449L161.656 32.2726C161.001 31.5236 162.228 32.0507 162.669 31.7693C162.843 31.6583 162.863 31.2501 162.859 30.9211L162.8 18.9718C162.275 18.6785 161.656 19.2888 161.352 18.3733L170.611 18.2703C171.01 18.2822 171.124 20.8662 170.907 20.9931C170.048 21.4924 170.434 19.4989 170.087 18.9242L164.16 18.8885L164.18 24.8494C166.002 25.1426 167.749 25.107 169.507 24.9048C169.842 24.2905 169.322 23.6287 169.969 22.9866C170.316 24.4927 170.268 25.8402 169.973 27.3502C169.255 26.6963 169.882 26.0304 169.562 25.3606C167.8 25.2496 166.104 25.2536 164.16 25.3329L164.164 25.3249Z" fill="#363636"/>
<path d="M88.8133 28.4877C89.6532 27.5801 89.251 31.8842 89.2786 32.344L79.8302 32.1617C80.2482 31.2144 80.9698 31.8842 81.585 31.5434L81.6126 18.9757C81.0132 18.5953 80.4099 19.0114 79.8972 18.5081C81.5614 18.2306 83.0283 18.2822 84.6924 18.4526C84.2705 19.0114 83.7342 18.6587 83.1229 18.8846L83.0875 31.5275C84.9448 31.7574 86.6838 31.6662 88.5096 31.5672L88.6122 28.8285C88.6201 28.6581 88.762 28.5432 88.8093 28.4916L88.8133 28.4877Z" fill="#363636"/>
<path d="M101.748 40.2864C101.629 40.6233 101.227 44.2973 102.221 44.436C101.29 44.6381 100.663 44.5787 99.7759 44.4598C99.8785 44.0833 100.364 44.2458 100.561 43.9683C100.438 42.7239 100.754 41.4794 100.431 40.2151C100.233 39.4502 98.5968 39.5651 98.376 40.334C98.029 41.5507 98.1315 42.7397 98.2341 43.9565C98.3287 44.2339 98.8256 44.0912 98.9123 44.4638C98.0645 44.6064 97.3665 44.6461 96.5187 44.4241C96.5936 44.0872 97.197 44.2497 97.2048 43.9525L97.3074 40.4569C97.3192 40.0328 97.1062 39.7197 96.7789 39.5374C97.264 39.0657 97.8161 39.6008 98.2459 39.6919C99.1726 39.1569 100.592 39.141 101.432 40.0447C102.028 39.6682 102.544 39.1688 103.199 39.2837C103.778 39.3828 104.512 39.4383 104.768 40.2151C105.135 41.3288 104.756 43.8494 105.005 44.004L105.691 44.436C104.816 44.654 104.11 44.5906 103.274 44.4717C103.388 44.1189 103.853 44.0991 103.853 43.7504C103.838 41.0553 104.299 39.688 102.741 39.7038C102.398 39.7038 101.913 39.8148 101.748 40.2904V40.2864Z" fill="#363636"/>
<path d="M148.954 40.3023C148.848 40.5995 148.438 44.3528 149.4 44.4241C148.552 44.6698 147.964 44.5747 147.156 44.4162C148.166 44.4003 147.815 40.6669 147.759 40.3617C147.641 39.7236 146.931 39.684 146.419 39.7355C145.851 39.795 145.476 40.3181 145.464 41.0276C145.449 42.0422 145.271 44.2933 146.087 44.4836C145.37 44.6262 144.715 44.6976 143.879 44.4439C144.313 44.0952 144.526 43.8376 144.526 43.2867L144.542 40.4489C144.542 39.9971 144.281 39.795 143.926 39.5057C144.463 39.2718 145.019 39.2916 145.366 39.8465C146.332 39.0657 147.68 39.0221 148.662 40.112C149.254 39.5691 149.727 39.2362 150.382 39.2877C150.981 39.3352 151.703 39.4422 151.979 40.1596C152.472 41.4516 151.884 43.7543 152.227 43.9921L152.87 44.4439C152.002 44.6064 151.308 44.6659 150.425 44.4083C150.926 44.1071 151.222 43.9089 151.166 43.2946C150.985 41.2654 151.569 39.7514 150.129 39.7157C149.692 39.7038 149.136 39.791 148.95 40.3062L148.954 40.3023Z" fill="#363636"/>
<path d="M125.384 42.9815C124.521 44.0119 127.928 42.9418 128.445 44.7016C128.638 45.3595 128.374 46.0927 127.731 46.5207C126.449 47.3728 123.823 47.2936 123.618 45.7399C123.429 44.3171 125.357 44.0991 124.201 42.0541C123.839 41.412 123.85 40.7739 124.158 40.1715C124.911 38.7051 127.1 39.2996 128.626 39.47C128.362 39.9495 127.952 39.6563 127.66 39.8901C128.027 40.6114 128.145 41.3407 127.802 41.955C127.159 43.1043 125.633 42.6922 125.388 42.9854L125.384 42.9815ZM127.092 41.0632C127.1 40.0922 126.575 39.6602 125.85 39.7117C125.112 39.7672 124.773 40.3498 124.828 41.1663C124.88 41.9233 125.353 42.5217 126.051 42.4702C126.674 42.4227 127.08 41.8678 127.088 41.0632H127.092ZM127.364 44.7491C126.883 44.111 125.735 44.2378 125.128 44.4994C124.588 44.7333 124.43 45.2207 124.545 45.7201C124.627 46.0887 125.002 46.3741 125.538 46.4969C126.075 46.6198 126.638 46.4454 127.033 46.1363C127.317 45.9143 127.79 45.3159 127.364 44.7491Z" fill="#363636"/>
<path d="M163.679 42.7675C163.127 44.4083 165.588 42.7675 166.439 44.4836C166.818 45.2485 166.487 46.1482 165.71 46.6039C164.326 47.4085 162.228 47.0914 161.944 45.95C161.818 45.4387 161.912 44.9631 162.255 44.5628C163.722 42.8626 161.652 41.951 162.389 40.3538C162.993 39.0459 165.505 39.2996 166.81 39.47L165.749 39.9377C165.994 40.552 166.234 41.2376 165.891 41.9035C165.67 42.3315 165.189 42.9458 164.479 42.823C165.264 42.276 165.382 41.7013 165.347 40.9562C165.311 40.2508 164.992 39.68 164.334 39.5572C163.714 39.4422 163.123 39.8386 162.973 40.552C162.796 41.4001 163.143 42.0778 163.679 42.7675ZM165.513 44.7016C165.114 44.1824 164.365 44.3092 163.852 44.329C163.103 44.3607 162.665 44.9037 162.697 45.5021C162.732 46.1601 163.332 46.5088 164.034 46.5167C164.546 46.5167 165.004 46.3582 165.311 46.0689C165.603 45.7954 165.875 45.1811 165.509 44.7016H165.513Z" fill="#363636"/>
<path d="M115.013 43.9723C114.844 42.272 115.731 39.5175 113.716 39.6999C113.329 39.7355 112.616 39.9218 112.529 40.5322C112.367 41.6775 112.348 42.9379 112.6 44.0397C112.635 44.1942 113.306 44.0278 113.18 44.4558C112.391 44.6144 111.519 44.6421 110.699 44.4479C110.723 44.0119 111.157 44.1665 111.476 44.0753C111.717 42.7873 111.508 41.3763 111.563 40.005L110.877 39.573C111.381 38.9231 112.127 39.6999 112.58 39.6127C113.542 39.3352 114.97 38.8993 115.557 40.0883C116.326 41.6498 114.883 44.1031 116.634 44.3885C115.841 44.6817 115.021 44.5668 114.016 44.4558C114.248 44.0159 114.65 44.2458 115.009 43.9723H115.013Z" fill="#363636"/>
<path d="M160.059 43.9802C160.012 42.2285 160.78 39.5929 158.793 39.7038C156.845 39.8108 157.72 42.1373 157.574 43.9485C157.807 44.2022 158.166 43.9723 158.269 44.4638C157.362 44.6064 156.573 44.6183 155.678 44.4321C155.879 43.9485 156.273 44.2299 156.612 44.0001L156.66 40.2072C156.664 39.8267 156.21 39.7395 155.966 39.6602C156.384 38.8874 157.16 39.7355 157.567 39.6404C158.541 39.4105 160.023 38.8121 160.635 40.0922C161.404 41.7053 160.023 44.1427 161.719 44.3845C160.93 44.6817 160.11 44.5589 159.105 44.4519C159.325 44.0199 159.724 44.2339 160.063 43.9763L160.059 43.9802Z" fill="#363636"/>
<path d="M107.036 42.0105C106.665 42.5098 107.178 43.7147 107.75 43.9842C108.546 44.3647 109.22 43.8415 110.072 44.0199C109.418 44.9354 108.12 44.7412 107.237 44.3647C105.754 43.7345 105.411 40.9443 106.764 39.7831C107.332 39.2956 108.065 39.2243 108.834 39.3788C109.966 39.6008 110.569 40.6828 110.218 41.7806C109.209 42.0263 108.081 41.5785 107.036 42.0065V42.0105ZM108.972 41.2931C109.437 41.1782 109.11 40.2111 108.834 39.9614C108.463 39.6246 107.789 39.7078 107.466 40.0209C107.225 40.2508 106.878 40.9919 107.217 41.2218C107.604 41.4834 108.4 41.4358 108.972 41.2931Z" fill="#363636"/>
<path d="M137.712 41.741C137.767 43.5284 136.619 44.5272 135.188 44.5391C133.606 44.5509 132.558 43.3223 132.696 41.634C132.814 40.1794 133.851 39.2124 135.2 39.2163C136.521 39.2163 137.664 40.1398 137.716 41.7449L137.712 41.741ZM136.58 43.3025C136.757 42.3275 136.848 41.4239 136.572 40.5559C136.371 39.9218 135.74 39.6206 135.196 39.6166C134.707 39.6166 134.095 39.8148 133.879 40.3895C133.52 41.3327 133.492 42.4425 133.871 43.3818C134.107 43.9644 134.719 44.1269 135.192 44.1269C135.716 44.1269 136.237 43.9129 136.58 43.3025Z" fill="#363636"/>
<path d="M143.406 41.7687C143.445 43.4373 142.392 44.4558 141.024 44.543C139.447 44.6421 138.374 43.5205 138.37 41.8678C138.37 40.3459 139.391 39.252 140.795 39.2084C142.211 39.1648 143.366 40.1556 143.402 41.7647L143.406 41.7687ZM142.172 43.4967C142.495 42.4266 142.55 41.5032 142.262 40.5559C142.077 39.9456 141.521 39.6682 140.973 39.6246C140.527 39.5889 139.853 39.7276 139.6 40.3419C139.21 41.2931 139.131 42.6525 139.703 43.5601C140.247 44.4241 141.596 44.2577 142.172 43.4967Z" fill="#363636"/>
<path d="M119.576 44.5668C118.795 44.8205 117.904 44.7769 117.206 44.3805C116.863 44.1863 116.689 43.6434 117.091 43.5165C117.774 44.226 118.838 44.5747 119.627 43.9485C119.954 43.6909 119.986 43.1202 119.789 42.8269C119.296 42.0977 116.977 42.4028 117.143 40.5797C117.237 39.5532 118.184 39.1886 119.209 39.2639C119.868 39.3115 120.794 39.3669 120.471 40.4212C119.769 39.6404 118.669 39.2996 117.931 40.0764C117.699 40.3221 117.849 40.8889 117.998 41.0632C118.566 41.7251 120.317 41.5071 120.585 42.7318C120.759 43.5165 120.416 44.2894 119.576 44.5628V44.5668Z" fill="#363636"/>
<path d="M130.653 40.2389C130.27 40.9245 130.444 43.8415 130.515 44.008C130.598 44.1982 130.949 44.0991 131.146 44.4241C130.349 44.6778 129.742 44.5787 128.945 44.4122C129.931 43.8455 129.434 42.7952 129.557 40.9285C129.6 40.2547 129.348 39.8346 128.693 39.5413C129.249 39.0261 129.813 39.5374 130.416 39.5057C131.225 39.466 132.128 38.7685 132.885 39.6047C132.076 39.8822 131.083 39.4541 130.649 40.2349L130.653 40.2389Z" fill="#363636"/>
<path d="M155.37 44.4638C154.649 44.6064 154.037 44.6302 153.268 44.4439C154.408 44.1586 153.749 41.3962 153.872 40.0724L153.288 39.5017C153.659 39.3669 154.369 39.256 154.708 39.5374L154.747 43.5244C154.645 44.004 154.996 44.0357 155.374 44.4677L155.37 44.4638Z" fill="#363636"/>
</g>
<defs>
<clipPath id="clip0_3_32">
<rect width="197" height="60" fill="white"/>
</clipPath>
</defs>
</svg>
